# xmcd CD database file
#
# Track frame offsets:
#	150
#	19571
#	35169
#	61314
#	78131
#	95554
#	112796
#	131576
#	151514
#	171116
#	188161
#
# Disc length: 2709 seconds
#
# Revision: 0
# Processed by: cddbd v1.5.2PL0 Copyright (c) Steve Scherf et al.
# Submitted via: CDex 1.51
#
DISCID=7a0a930b
DTITLE=Fankhauser Philipp - Watching form the save side
DYEAR=2006
DGENRE=Blues
TTITLE0=Wish you well
TTITLE1=Love Song
TTITLE2=Thomas and Rodney
TTITLE3=Sonday Morning
TTITLE4=The Blues Don't Like a crowd
TTITLE5=If you ain't been to houston
TTITLE6=time stands still
TTITLE7=blues ain't nothin'
TTITLE8=too little too late
TTITLE9=watching from the safe side
TTITLE10=it's over now baby
EXTD=YEAR: 2006
EXTT0=
EXTT1=
EXTT2=
EXTT3=
EXTT4=
EXTT5=
EXTT6=
EXTT7=
EXTT8=
EXTT9=
EXTT10=
PLAYORDER=
